<svg xmlns="http://www.w3.org/2000/svg" width="610.3" height="610.3" viewBox="73.35 145.35 610.29 610.29" fill="none"><g transform="translate(198,243) scale(0.25)"><g transform="translate(0.000000,1660.011516) scale(0.100000,-0.100000)"
fill="#0A0A0A" stroke="none">
<path d="M7298 16589 c-10 -5 -52 -17 -94 -25 -42 -8 -100 -21 -129 -29 -130
-38 -300 -123 -470 -235 -33 -22 -76 -49 -95 -60 -19 -11 -48 -29 -65 -40 -16
-11 -46 -29 -65 -40 -19 -11 -48 -29 -65 -40 -16 -11 -46 -29 -65 -40 -19 -11
-42 -24 -50 -30 -8 -5 -67 -39 -130 -75 -63 -37 -151 -88 -195 -115 -44 -27
-93 -56 -110 -65 -16 -8 -73 -42 -125 -74 -52 -33 -144 -88 -203 -123 -60 -35
-121 -71 -135 -80 -15 -10 -43 -27 -62 -38 -19 -11 -51 -30 -71 -43 -20 -12
-97 -57 -170 -100 -74 -43 -165 -98 -204 -122 -38 -25 -77 -48 -85 -52 -36
-19 -387 -228 -440 -262 -13 -9 -53 -32 -87 -51 -104 -58 -384 -222 -438 -255
-27 -18 -76 -49 -107 -69 -31 -20 -83 -51 -115 -69 -92 -52 -114 -65 -327
-196 -110 -68 -253 -153 -316 -189 -126 -71 -327 -190 -460 -272 -149 -92
-815 -489 -1015 -605 -55 -31 -197 -115 -315 -185 -118 -70 -264 -156 -325
-190 -162 -93 -222 -139 -320 -242 -201 -212 -328 -432 -394 -678 -13 -47 -29
-97 -37 -112 -12 -22 -14 -531 -14 -3540 0 -2271 3 -3517 10 -3524 5 -5 21
-54 35 -109 51 -205 144 -390 272 -543 156 -187 226 -244 453 -367 69 -37 197
-112 285 -165 222 -134 511 -300 545 -311 19 -7 47 -7 86 0 128 24 208 89 245
199 l22 66 -22 93 c-31 127 10 94 -536 420 -475 284 -543 332 -624 441 -54 72
-128 212 -160 302 -55 156 -51 -78 -51 3493 0 3275 0 3288 20 3380 23 100 53
184 106 291 45 90 83 143 156 222 54 58 208 184 224 184 3 0 18 8 32 19 15 10
68 40 117 66 50 26 97 54 106 61 8 8 19 14 22 14 4 0 49 26 99 59 51 32 120
74 153 94 120 71 305 177 309 177 4 0 180 106 256 155 25 16 70 42 100 58 67
37 445 263 480 287 14 10 81 49 150 87 116 65 322 186 650 380 74 44 184 109
243 144 233 138 517 308 544 327 55 38 109 70 193 116 47 26 146 85 220 131
74 47 225 137 335 201 110 63 238 138 285 166 47 28 123 73 170 101 47 27 108
64 135 82 42 27 144 89 383 232 20 13 48 29 62 35 14 7 36 20 50 29 14 9 88
53 165 98 77 45 147 86 155 91 8 5 60 35 114 67 55 32 116 67 135 79 20 11 83
52 141 90 161 105 191 119 355 162 87 23 119 26 250 25 126 0 166 -5 250 -26
154 -39 260 -85 381 -167 23 -15 72 -45 109 -66 37 -22 83 -49 103 -61 21 -12
51 -29 67 -37 17 -9 42 -24 57 -33 15 -10 93 -56 173 -103 81 -47 163 -95 183
-107 20 -13 64 -39 97 -58 33 -20 67 -40 75 -46 33 -21 200 -122 290 -174 52
-31 138 -83 190 -115 52 -33 140 -87 195 -121 55 -33 107 -64 115 -69 8 -5 74
-42 145 -82 113 -62 484 -287 800 -483 55 -34 204 -122 330 -195 127 -73 271
-159 320 -190 50 -32 261 -160 470 -285 209 -126 427 -258 485 -295 58 -36
159 -97 225 -135 66 -38 185 -110 265 -160 80 -51 217 -134 305 -184 88 -51
210 -124 270 -163 61 -38 153 -95 205 -125 52 -31 109 -64 125 -74 17 -11 41
-25 55 -32 64 -32 122 -76 205 -157 l90 -87 76 -13 c118 -19 175 -2 268 82
l41 38 0 139 0 140 -49 73 c-72 109 -122 150 -319 259 -23 13 -158 95 -300
183 -491 303 -664 409 -1022 623 -135 80 -281 169 -325 198 -44 28 -129 81
-190 117 -403 239 -544 325 -770 466 -123 78 -389 238 -447 270 -49 27 -177
103 -328 197 -115 72 -255 156 -359 215 -14 8 -51 31 -81 51 -78 51 -134 85
-310 189 -85 51 -166 100 -180 109 -58 39 -396 242 -435 261 -22 11 -29 15
-242 146 -81 51 -237 143 -346 205 -109 63 -208 121 -221 129 -12 8 -44 29
-70 45 -27 17 -76 48 -110 71 -34 22 -69 43 -77 47 -8 4 -36 20 -64 36 -155
89 -312 148 -450 167 -27 3 -62 13 -77 20 -33 17 -343 19 -370 3z"/>
<path d="M8545 13226 c-44 -23 -102 -55 -130 -71 -264 -149 -363 -204 -505
-280 -243 -130 -253 -135 -408 -224 -79 -44 -145 -81 -148 -81 -3 0 -52 -27
-111 -60 -58 -33 -107 -60 -110 -60 -2 0 -87 -47 -189 -105 -101 -58 -186
-105 -188 -105 -3 0 -68 -36 -145 -80 -78 -44 -143 -80 -146 -80 -2 0 -99 -54
-215 -120 -115 -66 -212 -120 -214 -120 -3 0 -107 -59 -233 -131 -125 -72
-268 -152 -318 -179 -175 -92 -250 -133 -275 -150 -14 -9 -33 -20 -43 -23 -10
-4 -42 -22 -70 -40 -76 -50 -154 -96 -227 -136 -36 -19 -81 -44 -102 -56 -34
-19 -306 -176 -338 -195 -46 -28 -167 -94 -245 -135 -49 -26 -97 -53 -105 -60
-8 -6 -22 -15 -30 -18 -8 -4 -32 -17 -52 -29 -107 -67 -392 -225 -511 -285
-26 -13 -54 -34 -62 -46 -12 -19 -16 -443 -24 -3082 -6 -1683 -13 -3512 -17
-4065 l-6 -1006 25 -30 c15 -17 63 -52 109 -79 46 -26 126 -76 178 -110 82
-53 292 -179 370 -222 14 -7 86 -51 160 -98 74 -46 178 -109 230 -140 52 -31
147 -87 210 -125 63 -39 124 -74 135 -80 11 -5 81 -48 155 -94 121 -76 283
-176 373 -231 52 -31 234 -138 270 -158 18 -10 44 -25 59 -35 15 -9 74 -45
130 -80 136 -83 135 -82 188 -118 25 -17 76 -48 113 -70 38 -21 84 -48 102
-59 111 -67 168 -101 230 -140 39 -24 90 -56 115 -71 25 -15 74 -46 110 -70
36 -23 87 -54 114 -68 27 -14 54 -30 60 -34 6 -5 47 -22 91 -37 44 -16 87 -34
96 -42 24 -20 761 -19 778 1 7 8 34 19 61 25 60 13 217 82 288 127 29 19 54
34 56 34 3 0 39 23 81 51 95 64 231 146 440 267 88 51 180 106 205 122 50 32
48 31 191 115 57 33 123 72 148 88 25 15 55 32 66 37 11 5 81 47 155 94 74 47
169 104 210 127 119 67 369 217 440 264 36 24 126 78 200 120 74 42 160 93
190 113 30 21 64 42 75 48 11 6 70 41 130 77 61 36 153 91 205 121 52 31 127
76 165 101 39 24 135 82 215 128 80 46 187 110 237 143 216 138 306 192 378
229 50 25 138 75 175 100 56 37 660 400 830 498 85 49 207 121 270 160 63 39
153 93 200 120 47 28 148 89 225 136 77 46 210 125 295 174 286 164 316 184
385 260 36 40 80 100 96 135 17 34 34 62 40 62 5 0 9 40 9 89 0 87 -1 91 -39
148 -87 131 -185 165 -336 117 -38 -12 -68 -34 -125 -89 -64 -63 -135 -116
-215 -161 -158 -90 -397 -230 -420 -248 -16 -12 -129 -80 -250 -150 -121 -71
-272 -161 -335 -200 -63 -40 -153 -94 -200 -121 -175 -100 -309 -180 -435
-260 -71 -45 -187 -114 -256 -153 -70 -39 -166 -95 -215 -125 -49 -29 -181
-109 -294 -177 -113 -68 -217 -131 -231 -141 -22 -15 -122 -75 -234 -139 -79
-45 -397 -238 -450 -273 -33 -22 -69 -43 -80 -48 -11 -5 -38 -20 -60 -34 -22
-13 -53 -32 -70 -41 -16 -9 -66 -40 -110 -68 -44 -28 -89 -56 -100 -63 -11 -6
-110 -64 -220 -128 -110 -65 -265 -157 -345 -206 -80 -49 -155 -95 -166 -102
-62 -35 -102 -59 -126 -75 -14 -9 -55 -34 -90 -55 -69 -41 -234 -141 -258
-156 -8 -6 -79 -47 -158 -93 -79 -46 -156 -91 -170 -101 -15 -9 -40 -24 -57
-32 -16 -9 -50 -29 -75 -45 -25 -16 -52 -33 -60 -37 -16 -8 -164 -97 -205
-123 -70 -44 -203 -118 -225 -125 -14 -4 -29 -11 -35 -15 -29 -21 -193 -60
-289 -69 -237 -23 -448 31 -661 169 -13 8 -73 44 -135 80 -62 36 -122 72 -135
80 -47 30 -217 136 -288 179 -69 42 -94 56 -172 101 -81 47 -107 62 -235 142
-74 47 -164 101 -200 122 -36 20 -74 42 -84 49 -11 7 -45 28 -75 47 -62 38
-78 48 -172 102 -35 21 -77 48 -94 61 l-29 24 2 2484 c1 1366 5 3060 8 3764
l6 1280 21 22 c18 18 281 173 294 173 2 0 38 20 81 44 42 24 118 65 167 91 99
53 112 60 277 155 151 87 169 97 195 109 12 6 116 63 230 129 114 65 246 138
293 161 80 41 206 110 240 132 8 5 29 16 45 25 30 14 71 38 150 84 22 13 78
43 125 68 84 44 257 141 308 174 15 9 59 33 97 54 39 20 75 40 80 44 12 9 118
66 240 130 78 40 352 193 395 220 8 5 31 18 50 28 19 10 62 34 95 52 33 18 98
53 145 77 47 25 92 51 101 59 8 8 19 14 23 14 4 0 38 17 74 39 64 37 145 82
222 123 19 10 53 29 75 41 22 13 69 39 105 58 36 20 85 48 110 62 25 15 83 48
130 74 165 91 666 377 702 401 40 26 54 62 43 113 -8 35 -69 78 -305 214 -74
42 -164 97 -200 120 -101 65 -150 95 -365 220 -249 145 -254 148 -343 207 -40
26 -98 62 -130 81 -31 19 -117 71 -191 116 -93 56 -143 81 -165 81 -17 0 -67
-20 -111 -44z"/>
<path d="M11200 10152 c-8 -4 -33 -19 -55 -33 -22 -14 -83 -48 -135 -74 -52
-27 -161 -86 -242 -132 -82 -46 -150 -83 -152 -83 -2 0 -48 -25 -102 -56 -133
-76 -208 -116 -409 -219 -93 -48 -215 -113 -270 -145 -55 -31 -201 -110 -325
-175 -124 -65 -254 -133 -290 -153 -112 -60 -496 -265 -700 -372 -107 -57
-267 -142 -355 -190 -246 -134 -303 -164 -431 -231 -66 -33 -171 -89 -234
-124 -63 -34 -232 -123 -375 -197 -310 -161 -380 -202 -400 -231 -12 -20 -15
-161 -15 -1007 l-1 -985 22 -17 c29 -24 65 -22 102 5 18 12 41 27 52 33 11 6
40 22 65 36 25 14 155 82 290 150 135 69 292 152 350 184 58 33 152 83 210
113 161 81 288 148 360 190 36 21 108 61 160 88 440 232 448 236 510 273 30
18 147 80 260 137 231 118 390 202 405 213 6 4 69 38 140 75 72 37 162 85 200
105 80 43 235 124 415 218 69 35 154 80 190 100 36 19 126 66 200 105 74 38
140 73 145 77 9 7 320 168 406 211 42 21 97 80 103 112 3 12 7 447 10 967 4
740 3 950 -7 967 -9 17 -78 77 -81 72 -1 0 -8 -3 -16 -7z"/>
</g></g></svg>